<?xml version="1.0" encoding="UTF-8"?>
<svg width="2655.7" height="2655.7" version="1.1" viewBox="0 0 2655.7 2655.7" xml:space="preserve" xmlns="http://www.w3.org/2000/svg"><g transform="matrix(1.3333 0 0 -1.3333 0 2655.7)"><path d="m0 0h1991.8v1991.8h-1991.8z" fill="#fffcf2"/><g clip-path="url(#clipPath18)"><g transform="translate(843.09 404.2)"><path d="m0 0c-138.74-4.275-264.37 25.234-365.15 115.05-67.856 60.474-102.03 136.35-119.9 218.84-2.919 13.493-4.957 27.134-8.429 46.429 63.387-17.398 123.14-33.802 182.65-50.132-94.649 198.36-153.89 402.53-96.553 621.07 56.229-78.186 113.14-154.44 215.91-192.37 3.795 20.573 6.065 39.64 10.962 58.157 16.291 61.612 52.932 114.14 95.789 163.48 30.807 35.47 61.361 71.264 94.681 104.83 59.593 60.041 71.583 128.36 48.147 202.93-11.495 36.585-27.129 72.145-40.886 108.17-1.768 4.622-3.512 9.249-5.263 13.876l-0.381-0.276c16.912-4.803 34.364-8.467 50.64-14.596 78.446-29.542 137.43-81.368 191.74-137.21 119.66-123.04 197.31-264.65 230.57-424.88 4.949-23.835 6.853-48.173 10.482-74.549 102.68 37.406 159.4 113.68 216.22 196.49 5.328-23.054 10.832-42.377 14.158-61.993 23.781-140.31 0.334-276.64-46.894-410.4-18.377-52.047-41.524-102.77-61.797-152.38 56.855 15.617 116.7 32.057 176.54 48.493 1.933-1.372 3.875-2.744 5.816-4.12-9.736-36.24-16.744-73.271-29.676-108.59-56.521-154.38-197.18-251.66-379.74-264.09-28.459-1.938-57.121-1.549-85.695-2.235z" fill="#eb5e28" fill-rule="evenodd"/></g><g transform="translate(995.88 632.83)"><path d="m0 0-446.91 258.02 446.91 258.03 446.92-258.03z" fill="#403d39"/></g><g transform="translate(573.96 890.85)"><path d="m0 0 421.91-243.59 421.91 243.59-421.91 243.59zm428.16 268.85 453.17-261.5v-17.667l-453.16-258.53h-12.5l-453.16 260.28v15.75l459.42 265.28z" fill="#fffcf2"/></g><g transform="translate(995.88 485.81)"><path d="m0 0-446.92 258.02 1e-3 147.02 446.91-258.03z" fill="#403d39"/></g><g transform="translate(561.46 751.06)"><path d="m0 0 421.92-243.59v118.15l-421.92 243.59zm428.16-276.07-446.92 258.02-6.25 10.825v147.02l18.75 10.825 446.92-258.03 6.25-10.826v-147.01z" fill="#fffcf2"/></g><g transform="translate(637.58 766.18)"><path d="m0 0c0 15.915-11.174 35.268-24.955 43.225-13.783 7.957-24.957 1.506-24.957-14.409 0-15.913 11.174-35.266 24.956-43.223s24.956-1.506 24.956 14.407" fill="#fffcf2"/></g><g transform="translate(717.48 720.05)"><path d="m0 0c0 15.916-11.174 35.268-24.955 43.225-13.783 7.957-24.956 1.507-24.957-14.409 1e-3 -15.913 11.175-35.266 24.957-43.223 13.781-7.957 24.955-1.506 24.955 14.407" fill="#fffcf2"/></g><g transform="translate(797.38 673.92)"><path d="m0 0c1e-3 15.914-11.174 35.268-24.956 43.225-13.781 7.957-24.955 1.505-24.955-14.409s11.174-35.267 24.955-43.224c13.782-7.957 24.956-1.506 24.956 14.408" fill="#fffcf2"/></g><g transform="translate(995.88 338.8)"><path d="m0 0-446.91 258.02-1e-3 147.01 446.92-258.02z" fill="#403d39"/><path d="m0 0-446.91 258.02-1e-3 147.01 446.92-258.02z" fill="none" stroke="#fffcf2" stroke-linejoin="bevel" stroke-miterlimit="10" stroke-width="25"/></g><g transform="translate(637.58 619.17)"><path d="m0 0c0 15.914-11.174 35.269-24.955 43.226-13.782 7.957-24.956 1.504-24.957-14.41 0-15.914 11.174-35.268 24.956-43.225s24.956-1.505 24.956 14.409" fill="#fffcf2"/></g><g transform="translate(717.48 573.04)"><path d="m0 0c0 15.914-11.174 35.269-24.955 43.226-13.782 7.957-24.956 1.504-24.957-14.41 0-15.914 11.174-35.267 24.956-43.224s24.956-1.506 24.956 14.408" fill="#fffcf2"/></g><g transform="translate(548.96 449.81)"><path d="m0 0 446.92-258.02-1e-3 147.01-446.91 258.03z" fill="#403d39"/></g><g transform="translate(561.46 457.03)"><path d="m0 0 421.92-243.59-1e-3 118.15-421.91 243.59zm434.41-279.68-459.41 265.24v175.88l471.91-272.46 2e-3 -161.45z" fill="#fffcf2"/></g><g transform="translate(907.26 316.46)"><path d="m0 0c1e-3 15.912 11.175 22.365 24.956 14.408 13.782-7.957 24.956-27.312 24.955-43.224 0-15.914-11.173-22.366-24.955-14.409-13.781 7.957-24.956 27.311-24.956 43.225" fill="#fffcf2"/></g><g transform="translate(1442.8 743.84)"><path d="m0 0-446.92-258.02v147.01l446.92 258.03z" fill="#403d39"/></g><g transform="translate(1008.4 625.61)"><path d="m0 0v-118.15l421.91 243.59v118.15zm-6.25-150.62-18.75 10.825v147.01l6.25 10.825 446.91 258.03 18.75-10.825v-147.01l-6.25-10.825z" fill="#fffcf2"/></g><g transform="translate(1404.2 823.97)"><path d="m0 0-184.84-106.72v-57.838l184.84 106.72z" fill="#fffcf2"/></g><g transform="translate(1442.8 596.82)"><path d="m0 0-446.92-258.02v147.01l446.92 258.03z" fill="#403d39"/><path d="m0 0-446.92-258.02v147.01l446.92 258.03z" fill="none" stroke="#fffcf2" stroke-linejoin="bevel" stroke-miterlimit="10" stroke-width="25"/></g><g transform="translate(1404.2 676.96)"><path d="m0 0-184.84-106.72 2e-3 -57.839 184.84 106.72z" fill="#fffcf2"/></g><g transform="translate(1442.8 449.81)"><path d="m0 0-446.92-258.02v147.02l446.92 258.02z" fill="#403d39"/></g><g transform="translate(1008.4 331.58)"><path d="m0 0v-118.15l421.91 243.59v118.15zm-25-147.01v161.45l471.91 272.46v-175.88l-459.41-265.24z" fill="#fffcf2"/></g></g></g></svg>
